<?xml version="1.0" standalone="no"?>
<!DOCTYPE svg PUBLIC "-//W3C//DTD SVG 20010904//EN"
 "http://www.w3.org/TR/2001/REC-SVG-20010904/DTD/svg10.dtd">
<svg version="1.0" xmlns="http://www.w3.org/2000/svg"
 width="260.000000pt" height="260.000000pt" viewBox="0 0 260.000000 260.000000"
 preserveAspectRatio="xMidYMid meet">
<metadata>
Created by potrace 1.11, written by Peter Selinger 2001-2013
</metadata>
<g transform="translate(0.000000,260.000000) scale(0.100000,-0.100000)"
fill="#000000" stroke="none">
<path d="M0 1300 l0 -1300 1300 0 1300 0 0 1300 0 1300 -1300 0 -1300 0 0
-1300z m2530 0 l0 -1230 -1230 0 -1230 0 0 1230 0 1230 1230 0 1230 0 0 -1230z"/>
<path d="M197 2303 c-15 -14 -6 -33 16 -33 39 0 56 -21 58 -70 2 -51 -28 -360
-37 -384 -3 -9 -17 -16 -29 -16 -27 0 -37 -11 -26 -28 12 -20 186 -12 186 8 0
8 -10 16 -23 18 -34 5 -40 34 -30 167 9 131 17 179 26 155 3 -8 22 -51 42 -95
21 -44 52 -114 69 -155 17 -41 35 -81 40 -89 17 -26 42 -1 80 81 21 46 64 137
95 203 l56 120 2 -130 c3 -237 0 -255 -49 -255 -16 0 -23 -6 -23 -20 0 -19 7
-20 120 -20 73 0 120 4 120 10 0 6 1 13 3 17 1 4 -11 10 -27 13 -40 7 -44 25
-52 267 l-7 203 25 0 c26 0 53 22 41 33 -3 4 -41 7 -83 7 -86 0 -103 -10 -113
-67 -6 -32 -26 -77 -104 -238 l-39 -81 -44 96 c-79 173 -107 235 -118 263 -11
26 -14 27 -90 27 -43 0 -82 -3 -85 -7z"/>
<path d="M924 2016 c-8 -22 4 -36 31 -36 26 0 71 -61 121 -162 l28 -58 -21
-27 c-17 -23 -28 -28 -64 -28 -34 0 -44 -4 -47 -18 -9 -45 49 -62 103 -28 33
20 93 116 144 231 18 41 42 81 52 89 32 23 21 31 -40 31 -58 0 -88 -14 -57
-26 21 -8 20 -33 -4 -90 l-21 -48 -39 65 c-37 62 -38 64 -18 72 36 13 4 31
-59 34 -31 1 -67 4 -80 8 -16 4 -25 1 -29 -9z"/>
<path d="M162 1563 c2 -11 14 -19 31 -21 15 -2 32 -12 38 -23 11 -22 5 -412
-7 -443 -5 -13 -14 -15 -35 -11 -26 6 -29 4 -29 -19 l0 -26 104 0 c57 0 111
-3 119 -6 8 -3 22 3 31 12 22 21 6 34 -40 34 -40 0 -44 10 -44 116 0 122 -1
121 122 123 56 1 117 -2 135 -5 l33 -6 0 -98 c0 -124 -2 -130 -51 -130 -28 0
-39 -4 -39 -15 0 -25 32 -33 135 -33 112 -1 135 3 135 23 0 15 -24 26 -42 20
-37 -14 -40 7 -39 229 1 119 4 223 7 230 3 8 21 17 40 21 21 3 34 11 31 18 -4
13 -217 30 -250 21 -23 -7 -17 -28 9 -32 69 -10 65 -4 62 -105 l-3 -92 -135 3
c-90 2 -137 7 -142 15 -7 11 0 157 8 166 2 2 20 7 41 10 20 3 38 11 40 17 6
17 -46 24 -164 24 -94 0 -104 -2 -101 -17z"/>
<path d="M1143 1545 c-38 -16 -43 -34 -12 -42 20 -6 20 -10 17 -222 -2 -119
-7 -224 -12 -233 -10 -22 19 -36 44 -20 10 6 22 7 31 1 29 -18 114 -10 150 14
66 44 75 153 17 202 -36 30 -65 38 -118 33 l-40 -4 5 106 c7 137 0 180 -28
180 -12 -1 -37 -7 -54 -15z m162 -328 c31 -26 37 -74 16 -125 -14 -34 -39 -47
-71 -37 -23 7 -35 57 -27 122 7 66 36 80 82 40z"/>
<path d="M907 1270 c-49 -27 -77 -73 -77 -128 0 -34 6 -49 33 -79 29 -31 41
-37 88 -40 42 -3 61 0 87 17 32 20 50 45 39 56 -3 3 -23 -4 -46 -15 -50 -26
-81 -20 -105 20 l-17 29 38 0 c45 0 121 32 129 55 28 72 -86 129 -169 85z m89
-35 c10 -25 -4 -61 -28 -71 -56 -24 -78 17 -33 61 27 28 53 32 61 10z"/>
<path d="M1797 1270 c-49 -27 -77 -73 -77 -128 0 -34 6 -49 33 -79 29 -31 41
-37 88 -40 42 -3 61 0 87 17 32 20 50 45 39 56 -3 3 -23 -4 -46 -15 -50 -26
-81 -20 -105 20 l-17 29 38 0 c45 0 121 32 129 55 28 72 -86 129 -169 85z m89
-35 c10 -25 -4 -61 -28 -71 -56 -24 -78 17 -33 61 27 28 53 32 61 10z"/>
<path d="M1497 1260 c-32 -10 -46 -20 -44 -30 1 -8 10 -14 19 -12 13 2 17 -9
20 -65 4 -86 1 -101 -26 -105 -11 -2 -20 -7 -18 -13 1 -6 39 -10 87 -10 50 0
85 4 85 10 0 6 -11 11 -25 13 -24 3 -25 6 -25 66 0 38 6 70 14 81 14 19 15 19
34 2 11 -10 31 -17 44 -15 19 2 23 9 23 38 0 27 -6 37 -25 47 -21 10 -30 9
-57 -7 -25 -15 -33 -16 -33 -6 0 21 -21 23 -73 6z"/>
<path d="M2000 1257 c0 -8 9 -17 20 -20 14 -4 36 -38 70 -111 60 -130 75 -136
120 -46 17 33 34 60 38 60 4 0 18 -27 30 -60 19 -49 28 -60 47 -60 18 0 30 15
61 73 22 39 45 86 52 104 8 18 23 35 33 38 11 4 18 12 16 18 -4 13 -90 22
-116 12 -14 -5 -13 -9 7 -23 l22 -17 -27 -55 -27 -54 -17 40 c-24 54 -24 80 2
87 42 11 6 27 -61 27 -66 0 -99 -13 -66 -26 21 -8 20 -27 -5 -76 l-21 -42 -24
44 c-29 56 -29 56 -3 63 12 3 19 12 17 19 -7 20 -168 24 -168 5z"/>
<path d="M167 903 c-16 -16 -5 -32 26 -35 l32 -3 3 -229 c3 -245 0 -261 -45
-250 -22 6 -24 4 -21 -17 l3 -24 165 -3 c184 -3 219 5 259 59 24 33 43 114 34
150 -9 37 -60 96 -90 104 l-26 6 31 19 c39 24 52 48 52 98 0 49 -29 88 -84
113 -34 15 -67 19 -187 19 -80 0 -149 -3 -152 -7z m306 -64 c28 -34 18 -105
-18 -136 -29 -25 -93 -31 -113 -11 -15 15 -16 132 -1 160 16 30 104 21 132
-13z m-26 -210 c53 -20 73 -48 73 -101 0 -59 -20 -110 -51 -132 -32 -22 -125
-22 -133 0 -3 9 -6 67 -6 130 l0 114 44 0 c25 0 57 -5 73 -11z"/>
<path d="M713 865 c-27 -19 -20 -53 13 -61 42 -11 72 34 42 64 -16 16 -29 15
-55 -3z"/>
<path d="M883 865 c-37 -16 -42 -29 -16 -43 15 -9 16 -32 14 -218 -1 -115 -3
-220 -4 -234 -2 -21 2 -25 23 -22 30 3 31 3 98 -4 101 -11 152 31 152 126 0
91 -51 136 -145 128 l-45 -3 1 120 c2 168 3 165 -23 165 -13 -1 -38 -7 -55
-15z m162 -330 c50 -49 21 -165 -40 -165 -32 0 -45 27 -45 95 0 31 5 65 10 76
15 26 46 24 75 -6z"/>
<path d="M1231 862 c-55 -21 -63 -40 -22 -48 l31 -6 0 -209 0 -209 -26 -10
c-44 -17 -22 -35 46 -38 36 -2 75 0 87 3 28 7 30 35 3 35 -11 0 -23 6 -26 14
-3 7 -6 118 -7 247 -2 266 2 255 -86 221z"/>
<path d="M1473 589 c-47 -23 -83 -72 -83 -113 0 -74 60 -136 133 -136 50 0
117 34 117 60 0 25 -1 25 -47 0 -47 -25 -54 -25 -87 1 -37 29 -34 49 7 49 18
0 53 10 77 23 37 18 46 28 48 52 6 66 -88 103 -165 64z m87 -40 c18 -33 -11
-69 -56 -69 -34 0 -36 1 -30 28 7 29 40 62 62 62 7 0 18 -9 24 -21z"/>
<path d="M682 573 c-36 -13 -41 -17 -31 -30 7 -8 20 -12 30 -10 20 5 30 -45
22 -117 -5 -41 -8 -46 -30 -46 -15 0 -23 -5 -21 -12 3 -9 32 -14 86 -16 68 -2
82 0 82 13 0 8 -9 15 -20 15 -19 0 -20 7 -20 110 l0 110 -27 -1 c-16 0 -47 -7
-71 -16z"/>
</g>
</svg>
